<?xml version="1.0" encoding="UTF-8" standalone="no"?>
<!DOCTYPE svg PUBLIC "-//W3C//DTD SVG 1.1//EN"
 "http://www.w3.org/Graphics/SVG/1.1/DTD/svg11.dtd">
<!-- Generated by graphviz version 2.43.0 (0)
 -->
<!-- Pages: 1 -->
<svg width="498pt" height="260pt"
 viewBox="0.00 0.00 498.00 260.00" xmlns="http://www.w3.org/2000/svg" xmlns:xlink="http://www.w3.org/1999/xlink">
<g id="graph0" class="graph" transform="scale(1 1) rotate(0) translate(4 256)">
<polygon fill="white" stroke="transparent" points="-4,4 -4,-256 494,-256 494,4 -4,4"/>
<!-- config -->
<g id="node1" class="node">
<title>config</title>
<ellipse fill="#b2dfee" stroke="#b2dfee" cx="129.06" cy="-90" rx="33.29" ry="18"/>
<text text-anchor="middle" x="129.06" y="-86.3" font-family="Times,serif" font-size="14.00">config</text>
</g>
<!-- dyadic_frequencies -->
<g id="node2" class="node">
<title>dyadic_frequencies</title>
<ellipse fill="#b2dfee" stroke="#b2dfee" cx="129.06" cy="-18" rx="79.09" ry="18"/>
<text text-anchor="middle" x="129.06" y="-14.3" font-family="Times,serif" font-size="14.00">dyadic_frequencies</text>
</g>
<!-- config&#45;&gt;dyadic_frequencies -->
<g id="edge1" class="edge">
<title>config&#45;&gt;dyadic_frequencies</title>
<path fill="none" stroke="black" d="M129.06,-71.7C129.06,-63.98 129.06,-54.71 129.06,-46.11"/>
<polygon fill="black" stroke="black" points="132.56,-46.1 129.06,-36.1 125.56,-46.1 132.56,-46.1"/>
</g>
<!-- watershed_segment -->
<g id="node3" class="node">
<title>watershed_segment</title>
<ellipse fill="#b2dfee" stroke="#b2dfee" cx="129.06" cy="-162" rx="80.69" ry="18"/>
<text text-anchor="middle" x="129.06" y="-158.3" font-family="Times,serif" font-size="14.00">watershed_segment</text>
</g>
<!-- watershed_segment&#45;&gt;config -->
<g id="edge2" class="edge">
<title>watershed_segment&#45;&gt;config</title>
<path fill="none" stroke="black" d="M129.06,-143.7C129.06,-135.98 129.06,-126.71 129.06,-118.11"/>
<polygon fill="black" stroke="black" points="132.56,-118.1 129.06,-108.1 125.56,-118.1 132.56,-118.1"/>
</g>
<!-- utilities -->
<g id="node4" class="node">
<title>utilities</title>
<ellipse fill="#b2dfee" stroke="#b2dfee" cx="316.06" cy="-90" rx="37.09" ry="18"/>
<text text-anchor="middle" x="316.06" y="-86.3" font-family="Times,serif" font-size="14.00">utilities</text>
</g>
<!-- watershed_segment&#45;&gt;utilities -->
<g id="edge3" class="edge">
<title>watershed_segment&#45;&gt;utilities</title>
<path fill="none" stroke="black" d="M168.72,-146.15C201.07,-134.04 246.47,-117.05 278.3,-105.13"/>
<polygon fill="black" stroke="black" points="279.58,-108.39 287.71,-101.61 277.12,-101.84 279.58,-108.39"/>
</g>
<!-- umap_embed -->
<g id="node5" class="node">
<title>umap_embed</title>
<ellipse fill="#b2dfee" stroke="#b2dfee" cx="415.06" cy="-162" rx="59.29" ry="18"/>
<text text-anchor="middle" x="415.06" y="-158.3" font-family="Times,serif" font-size="14.00">umap_embed</text>
</g>
<!-- umap_embed&#45;&gt;config -->
<g id="edge4" class="edge">
<title>umap_embed&#45;&gt;config</title>
<path fill="none" stroke="black" d="M370.81,-149.89C362.9,-147.92 354.74,-145.89 347.06,-144 284.74,-128.63 212.32,-111.09 168.63,-100.54"/>
<polygon fill="black" stroke="black" points="169.23,-97.08 158.69,-98.14 167.59,-103.89 169.23,-97.08"/>
</g>
<!-- umap_embed&#45;&gt;utilities -->
<g id="edge5" class="edge">
<title>umap_embed&#45;&gt;utilities</title>
<path fill="none" stroke="black" d="M392.59,-145.12C378.38,-135.07 359.88,-121.99 344.63,-111.2"/>
<polygon fill="black" stroke="black" points="346.27,-108.07 336.08,-105.16 342.23,-113.79 346.27,-108.07"/>
</g>
<!-- data_aggregate -->
<g id="node6" class="node">
<title>data_aggregate</title>
<ellipse fill="#b2dfee" stroke="#b2dfee" cx="75.06" cy="-234" rx="63.89" ry="18"/>
<text text-anchor="middle" x="75.06" y="-230.3" font-family="Times,serif" font-size="14.00">data_aggregate</text>
</g>
<!-- data_aggregate&#45;&gt;config -->
<g id="edge6" class="edge">
<title>data_aggregate&#45;&gt;config</title>
<path fill="none" stroke="black" d="M44.47,-218.01C29.99,-209.13 14.14,-196.39 6.06,-180 -1.02,-165.65 -2.74,-157.37 6.06,-144 23.93,-116.84 58.97,-103.54 87.1,-97.06"/>
<polygon fill="black" stroke="black" points="88.03,-100.44 97.1,-94.97 86.6,-93.59 88.03,-100.44"/>
</g>
<!-- data_aggregate&#45;&gt;watershed_segment -->
<g id="edge7" class="edge">
<title>data_aggregate&#45;&gt;watershed_segment</title>
<path fill="none" stroke="black" d="M88.13,-216.05C94.63,-207.63 102.61,-197.28 109.8,-187.97"/>
<polygon fill="black" stroke="black" points="112.77,-189.84 116.11,-179.79 107.23,-185.57 112.77,-189.84"/>
</g>
<!-- data_aggregate&#45;&gt;utilities -->
<g id="edge8" class="edge">
<title>data_aggregate&#45;&gt;utilities</title>
<path fill="none" stroke="black" d="M58.9,-216.33C42.29,-197.17 21.22,-165.58 39.06,-144 53.7,-126.3 195.74,-106.07 270.52,-96.53"/>
<polygon fill="black" stroke="black" points="271.12,-99.98 280.61,-95.25 270.25,-93.03 271.12,-99.98"/>
</g>
<!-- config_dodo -->
<g id="node7" class="node">
<title>config_dodo</title>
<ellipse fill="#b2dfee" stroke="#b2dfee" cx="283.06" cy="-162" rx="55.49" ry="18"/>
<text text-anchor="middle" x="283.06" y="-158.3" font-family="Times,serif" font-size="14.00">config_dodo</text>
</g>
<!-- data_aggregate&#45;&gt;config_dodo -->
<g id="edge9" class="edge">
<title>data_aggregate&#45;&gt;config_dodo</title>
<path fill="none" stroke="black" d="M114.67,-219.67C149.26,-208.03 199.5,-191.12 236.1,-178.8"/>
<polygon fill="black" stroke="black" points="237.68,-181.97 246.04,-175.46 235.44,-175.33 237.68,-181.97"/>
</g>
<!-- dodo -->
<g id="node8" class="node">
<title>dodo</title>
<ellipse fill="#b2dfee" stroke="#b2dfee" cx="349.06" cy="-234" rx="28.7" ry="18"/>
<text text-anchor="middle" x="349.06" y="-230.3" font-family="Times,serif" font-size="14.00">dodo</text>
</g>
<!-- dodo&#45;&gt;watershed_segment -->
<g id="edge10" class="edge">
<title>dodo&#45;&gt;watershed_segment</title>
<path fill="none" stroke="black" d="M323.82,-224.97C289.65,-214.1 227.78,-194.41 182.92,-180.14"/>
<polygon fill="black" stroke="black" points="183.93,-176.79 173.34,-177.09 181.81,-183.46 183.93,-176.79"/>
</g>
<!-- dodo&#45;&gt;utilities -->
<g id="edge11" class="edge">
<title>dodo&#45;&gt;utilities</title>
<path fill="none" stroke="black" d="M377.3,-230.84C409.1,-226.72 459.43,-214.76 483.06,-180 492.05,-166.77 492.51,-156.91 483.06,-144 455.85,-106.82 402.38,-95.08 363.24,-91.7"/>
<polygon fill="black" stroke="black" points="363.35,-88.19 353.13,-90.98 362.85,-95.18 363.35,-88.19"/>
</g>
<!-- dodo&#45;&gt;umap_embed -->
<g id="edge12" class="edge">
<title>dodo&#45;&gt;umap_embed</title>
<path fill="none" stroke="black" d="M363.05,-218.15C371.5,-209.2 382.46,-197.58 392.14,-187.31"/>
<polygon fill="black" stroke="black" points="394.91,-189.47 399.23,-179.79 389.82,-184.66 394.91,-189.47"/>
</g>
<!-- dodo&#45;&gt;config_dodo -->
<g id="edge13" class="edge">
<title>dodo&#45;&gt;config_dodo</title>
<path fill="none" stroke="black" d="M335.06,-218.15C326.5,-209.07 315.34,-197.24 305.56,-186.87"/>
<polygon fill="black" stroke="black" points="307.82,-184.17 298.42,-179.29 302.73,-188.97 307.82,-184.17"/>
</g>
</g>
</svg>
