<?xml version="1.0" encoding="UTF-8" standalone="no"?>
<!-- Generator: Adobe Illustrator 18.1.0, SVG Export Plug-In . SVG Version: 6.00 Build 0)  -->

<svg
   xmlns:dc="http://purl.org/dc/elements/1.1/"
   xmlns:cc="http://creativecommons.org/ns#"
   xmlns:rdf="http://www.w3.org/1999/02/22-rdf-syntax-ns#"
   xmlns:svg="http://www.w3.org/2000/svg"
   xmlns="http://www.w3.org/2000/svg"
   xmlns:sodipodi="http://sodipodi.sourceforge.net/DTD/sodipodi-0.dtd"
   xmlns:inkscape="http://www.inkscape.org/namespaces/inkscape"
   version="1.1"
   x="0px"
   y="0px"
   viewBox="0 0 446.17334 274.83676"
   enable-background="new 0 0 512 512"
   xml:space="preserve"
   id="svg20"
   sodipodi:docname="mouse_behavior_analysis_logo.svg"
   width="446.17334"
   height="274.83676"
   inkscape:version="0.92.5 (2060ec1f9f, 2020-04-08)"><metadata
   id="metadata26"><rdf:RDF><cc:Work
       rdf:about=""><dc:format>image/svg+xml</dc:format><dc:type
         rdf:resource="http://purl.org/dc/dcmitype/StillImage" /></cc:Work></rdf:RDF></metadata><defs
   id="defs24" /><sodipodi:namedview
   pagecolor="#ffffff"
   bordercolor="#666666"
   borderopacity="1"
   objecttolerance="10"
   gridtolerance="10"
   guidetolerance="10"
   inkscape:pageopacity="0"
   inkscape:pageshadow="2"
   inkscape:window-width="1308"
   inkscape:window-height="704"
   id="namedview22"
   showgrid="false"
   inkscape:zoom="0.921875"
   inkscape:cx="115.87972"
   inkscape:cy="14.202719"
   inkscape:window-x="58"
   inkscape:window-y="27"
   inkscape:window-maximized="1"
   inkscape:current-layer="svg20" />






<g
   transform="matrix(-1,0,0,1,478.53835,-138.11699)"
   id="Layer_2-3-9"><path
     style="fill:#f4b5c8"
     inkscape:connector-curvature="0"
     d="m 112.816,293.123 c 0,0 -1.414,0.008 -4.064,0.023 -0.693,-0.007 -1.338,0.031 -2.071,0.064 -0.733,0.031 -1.533,0.065 -2.397,0.102 -0.858,0.025 -1.84,0.139 -2.855,0.211 -1.023,0.083 -2.112,0.157 -3.249,0.314 -4.566,0.506 -10.081,1.419 -16.144,3.187 -6.043,1.758 -12.702,4.38 -18.94,8.485 -3.11,2.045 -6.101,4.461 -8.692,7.28 -2.587,2.813 -4.797,6.029 -6.141,9.572 -2.925,7.02 -2.027,15.364 2.65,23.123 2.286,3.878 5.394,7.577 9.021,10.971 3.628,3.401 7.763,6.508 12.172,9.363 4.409,2.857 9.095,5.482 13.988,7.825 2.41,1.232 4.937,2.282 7.421,3.414 2.536,1.036 5.054,2.121 7.636,3.079 20.608,7.824 42.492,12.797 63.155,16.312 10.34,1.783 20.424,3.097 30.005,4.207 2.398,0.263 4.763,0.523 7.093,0.779 2.331,0.249 4.633,0.44 6.894,0.657 4.521,0.449 8.9,0.778 13.105,1.097 4.202,0.352 8.24,0.566 12.078,0.81 3.837,0.259 7.483,0.419 10.91,0.578 6.851,0.362 12.834,0.497 17.759,0.675 4.926,0.144 8.8,0.185 11.441,0.247 2.641,0.052 4.049,0.079 4.049,0.079 l 0.048,10e-4 c 2.015,0.039 3.616,1.705 3.577,3.72 -0.039,1.982 -1.655,3.563 -3.625,3.578 0,0 -1.419,0.009 -4.078,0.026 -2.66,0.006 -6.561,0.065 -11.528,0.049 -4.967,-0.05 -11,-0.03 -17.921,-0.217 -3.461,-0.072 -7.144,-0.137 -11.026,-0.299 -3.882,-0.146 -7.966,-0.257 -12.225,-0.502 -4.26,-0.212 -8.698,-0.431 -13.288,-0.766 -2.295,-0.161 -4.631,-0.294 -7.001,-0.485 -2.369,-0.198 -4.775,-0.399 -7.213,-0.603 -9.751,-0.874 -20.034,-1.944 -30.635,-3.49 -21.191,-3.052 -43.774,-7.53 -65.705,-15.203 -2.745,-0.939 -5.453,-2.02 -8.172,-3.052 -2.688,-1.138 -5.402,-2.19 -8.046,-3.451 -5.329,-2.388 -10.531,-5.116 -15.544,-8.182 -5.011,-3.065 -9.838,-6.483 -14.281,-10.432 -4.434,-3.947 -8.495,-8.444 -11.743,-13.616 -0.802,-1.301 -1.602,-2.595 -2.264,-3.995 -0.339,-0.692 -0.711,-1.36 -1.013,-2.072 -0.293,-0.719 -0.585,-1.436 -0.876,-2.152 -0.141,-0.36 -0.294,-0.714 -0.424,-1.079 l -0.35,-1.116 c -0.228,-0.745 -0.455,-1.488 -0.682,-2.23 -0.166,-0.765 -0.332,-1.529 -0.497,-2.29 l -0.238,-1.144 c -0.064,-0.385 -0.102,-0.776 -0.153,-1.163 -0.091,-0.777 -0.181,-1.552 -0.271,-2.324 -0.043,-0.778 -0.055,-1.559 -0.077,-2.336 l -0.024,-1.165 c 0.008,-0.387 0.042,-0.774 0.063,-1.161 0.054,-0.773 0.107,-1.544 0.161,-2.312 0.421,-3.04 1.02,-6.048 2.09,-8.811 1.984,-5.61 5.137,-10.389 8.617,-14.387 3.495,-4.01 7.361,-7.269 11.259,-9.985 7.824,-5.431 15.75,-8.736 22.848,-11.016 7.119,-2.277 13.48,-3.49 18.724,-4.214 1.31,-0.212 2.554,-0.333 3.725,-0.459 1.179,-0.116 2.248,-0.265 3.31,-0.329 1.054,-0.072 2.029,-0.138 2.922,-0.199 0.894,-0.06 1.726,-0.12 2.358,-0.129 2.649,-0.084 4.062,-0.129 4.062,-0.129 4.601,-0.147 8.45,3.465 8.597,8.066 0.147,4.601 -3.465,8.45 -8.066,8.597 -0.06,0.002 -0.16,0.004 -0.219,0.004 z"
     id="path2-6-2" /></g><g
   transform="matrix(-1,0,0,1,478.53835,-138.11699)"
   id="Layer_3-7-2"><path
     style="fill:#4a5e66"
     inkscape:connector-curvature="0"
     d="m 362.835,254.108 c -4.412,-16.855 4.232,-35.056 21.339,-41.756 16.229,-6.356 34.99,0.348 43.514,15.551 8.939,15.943 4.184,35.381 -9.744,45.664 -3.234,2.388 -7.469,2.956 -11.255,1.603 l -36.484,-13.039 c -3.628,-1.297 -6.395,-4.297 -7.37,-8.023 z"
     id="path5-5-8" /></g><g
   transform="matrix(-1,0,0,1,478.53835,-138.11699)"
   id="Layer_4-3-9"><path
     style="fill:#657f8c"
     inkscape:connector-curvature="0"
     d="M 472.538,303.833 C 425.826,253.974 329.942,169.588 203.264,152.024 l 0.025,-0.003 -4.797,-1.698 c -1.279,-0.453 -1.871,-1.835 -1.317,-3.073 l 1.099,-2.455 c 0.345,-0.769 -0.503,-1.539 -1.447,-1.315 l -31.155,4.764 c -1.555,0.238 -2.725,-1.164 -1.923,-2.305 l 4.436,-6.309 c 0.54,-0.768 -0.289,-1.701 -1.32,-1.48 -9.999,2.138 -44.872,10.546 -65.257,27.613 v 0 c -25.078,17.341 -41.512,46.295 -41.512,79.093 0,53.074 43.025,96.099 96.099,96.099 h 300.239 c 19.303,0 29.3,-23.037 16.104,-37.122 z"
     id="path8-5-7" /></g><g
   transform="matrix(-1,0,0,1,478.53835,-138.11699)"
   id="Layer_5-6-3"><path
     style="fill:#2b3b47"
     inkscape:connector-curvature="0"
     d="m 430.564,287.132 c -4.21,-0.21 -7.793,3.032 -8.004,7.242 l -0.659,13.182 c -0.21,4.21 3.032,7.793 7.242,8.004 v 0 c 4.21,0.21 7.793,-3.032 8.004,-7.242 l 0.659,-13.182 c 0.211,-4.21 -3.032,-7.794 -7.242,-8.004 z"
     id="path11-2-6" /></g><g
   id="g906-0-1"
   transform="matrix(0.39759061,-0.26892696,0.26892696,0.39759061,-207.30182,196.48819)"><path
     id="path18-7-9-29"
     d="m 762.38079,147.77664 c -2.4,-44.8 -33.2,-81.600005 -74.8,-92.800005 v -4.8 c 0,-6.4 -5.2,-12.000002 -12,-12.000002 h -28.8 c -6.4,0 -12,5.200002 -12,12.000002 v 4.8 c -41.6,11.2 -72.8,48.000005 -74.8,92.800005 -8.8,3.2 -13.6,6.4 -13.6,10.4 0,12 51.6,21.6 114.8,21.6 63.6,0 114.8,-9.6 114.8,-21.6 0,-4 -4.8,-7.2 -13.6,-10.4 z"
     style="fill:#dee254;stroke-width:4"
     inkscape:connector-curvature="0" /><path
     id="path22-9-3-3"
     d="m 634.78079,117.37664 c -3.2,0 -5.6,-2.4 -5.6,-5.6 V 60.976635 c 0,-3.2 2.4,-5.6 5.6,-5.6 3.2,0 5.6,2.4 5.6,5.6 v 51.200005 c -0.4,2.8 -2.8,5.2 -5.6,5.2 z m 58.4,-5.6 V 60.576635 c 0,-3.2 -2.4,-5.6 -5.6,-5.6 -3.2,0 -5.6,2.4 -5.6,5.6 v 51.200005 c 0,3.2 2.4,5.6 5.6,5.6 3.2,0 5.6,-2.4 5.6,-5.6 z m -32,68 c -63.6,0 -114.8,-9.6 -114.8,-21.6 v 12 c 0,12 51.6,21.6 114.8,21.6 63.6,0 114.8,-9.6 114.8,-21.6 v -12 c 0,12 -51.6,21.6 -114.8,21.6 z"
     style="fill:#c4c43b;stroke-width:4"
     inkscape:connector-curvature="0" /></g><g
   transform="matrix(-1,0,0,1,478.53835,-138.11699)"
   id="Layer_6-9-1"><path
     style="fill:#7c99a5"
     inkscape:connector-curvature="0"
     d="m 369.804,278.887 c -16.507,-5.573 -26.968,-22.794 -23.169,-40.769 3.604,-17.053 19.513,-29.046 36.899,-27.817 18.232,1.289 31.862,15.94 32.803,33.227 0.218,4.014 -1.633,7.865 -4.843,10.285 l -30.938,23.323 c -3.075,2.32 -7.102,2.984 -10.752,1.751 z M 255.842,303.74 h -38.477 c 4.712,-10.054 7.359,-21.268 7.359,-33.106 0,-43.143 -34.974,-78.117 -78.117,-78.117 -43.143,0 -78.117,34.974 -78.117,78.117 0,43.143 34.974,78.117 78.117,78.117 h 109.234 c 12.429,0 22.505,-10.076 22.505,-22.505 10e-4,-12.43 -10.075,-22.506 -22.504,-22.506 z"
     id="path14-1-9" /></g><g
   transform="matrix(-1,0,0,1,478.53835,-138.11699)"
   id="Layer_7-2-4"><path
     style="fill:#f4b5c8"
     inkscape:connector-curvature="0"
     d="m 381.294,276.671 c -12.903,-1.811 -21.896,-13.739 -20.085,-26.642 1.811,-12.903 13.739,-21.896 26.642,-20.085 12.903,1.811 21.896,13.739 20.085,26.642 z"
     id="path17-7-7" /></g></svg>